<svg width="38" height="39" viewBox="0 0 38 39" fill="none" xmlns="http://www.w3.org/2000/svg">
<rect x="0.5" y="1.09961" width="36.8008" height="36.8008" rx="7.85124" stroke="#F29946"/>
<path d="M12.4015 10.7236V21.2396C12.4015 22.2912 12.6602 23.1008 13.1777 23.6683C13.6951 24.2358 14.4546 24.5196 15.4561 24.5196C16.4577 24.5196 17.2255 24.2358 17.7596 23.6683C18.2938 23.1008 18.5609 22.2912 18.5609 21.2396V10.7236H22.8424V21.2146C22.8424 22.7836 22.5085 24.1106 21.8408 25.1956C21.1732 26.2806 20.2718 27.0985 19.1367 27.6493C18.0184 28.2002 16.7665 28.4756 15.381 28.4756C13.9956 28.4756 12.752 28.2085 11.6504 27.6744C10.5654 27.1235 9.70574 26.3056 9.07144 25.2206C8.43714 24.119 8.12 22.7836 8.12 21.2146V10.7236H12.4015Z" fill="#F29946"/>
<path d="M29.88 10.7236V28.3003H25.5985V10.7236H29.88Z" fill="#F29946"/>
</svg>
