<svg width="140" height="39" viewBox="0 0 140 39" fill="none" xmlns="http://www.w3.org/2000/svg">
<rect x="0.5" y="1.09961" width="36.8008" height="36.8008" rx="7.85124" stroke="#F29946"/>
<path d="M12.4015 10.7236V21.2396C12.4015 22.2912 12.6602 23.1008 13.1777 23.6683C13.6951 24.2358 14.4546 24.5196 15.4561 24.5196C16.4577 24.5196 17.2255 24.2358 17.7596 23.6683C18.2938 23.1008 18.5609 22.2912 18.5609 21.2396V10.7236H22.8424V21.2146C22.8424 22.7836 22.5085 24.1106 21.8408 25.1956C21.1732 26.2806 20.2718 27.0985 19.1367 27.6493C18.0184 28.2002 16.7665 28.4756 15.381 28.4756C13.9956 28.4756 12.752 28.2085 11.6504 27.6744C10.5654 27.1235 9.70574 26.3056 9.07144 25.2206C8.43714 24.119 8.12 22.7836 8.12 21.2146V10.7236H12.4015Z" fill="#F29946"/>
<path d="M29.88 10.7236V28.3003H25.5985V10.7236H29.88Z" fill="#F29946"/>
<path d="M49.6971 30V8.18182H58.305C59.9599 8.18182 61.3697 8.49787 62.5344 9.12997C63.6992 9.75497 64.587 10.625 65.1978 11.7401C65.8157 12.848 66.1246 14.1264 66.1246 15.5753C66.1246 17.0241 65.8121 18.3026 65.1871 19.4105C64.5621 20.5185 63.6566 21.3814 62.4705 21.9993C61.2915 22.6172 59.864 22.9261 58.1879 22.9261H52.7013V19.2294H57.4421C58.3299 19.2294 59.0614 19.0767 59.6367 18.7713C60.2191 18.4588 60.6523 18.0291 60.9364 17.4822C61.2276 16.9283 61.3732 16.2926 61.3732 15.5753C61.3732 14.8509 61.2276 14.2187 60.9364 13.679C60.6523 13.1321 60.2191 12.7095 59.6367 12.4112C59.0543 12.1058 58.3157 11.9531 57.4208 11.9531H54.31V30H49.6971ZM76.1655 30.3196C74.5107 30.3196 73.0795 29.968 71.8722 29.2649C70.6719 28.5547 69.745 27.5675 69.0916 26.3033C68.4382 25.032 68.1115 23.5582 68.1115 21.8821C68.1115 20.1918 68.4382 18.7145 69.0916 17.4503C69.745 16.179 70.6719 15.1918 71.8722 14.4886C73.0795 13.7784 74.5107 13.4233 76.1655 13.4233C77.8203 13.4233 79.2479 13.7784 80.4482 14.4886C81.6555 15.1918 82.5859 16.179 83.2393 17.4503C83.8928 18.7145 84.2195 20.1918 84.2195 21.8821C84.2195 23.5582 83.8928 25.032 83.2393 26.3033C82.5859 27.5675 81.6555 28.5547 80.4482 29.2649C79.2479 29.968 77.8203 30.3196 76.1655 30.3196ZM76.1868 26.804C76.9396 26.804 77.5682 26.5909 78.0724 26.1648C78.5767 25.7315 78.9567 25.142 79.2124 24.3963C79.4751 23.6506 79.6065 22.8018 79.6065 21.8501C79.6065 20.8984 79.4751 20.0497 79.2124 19.304C78.9567 18.5582 78.5767 17.9687 78.0724 17.5355C77.5682 17.1023 76.9396 16.8857 76.1868 16.8857C75.4268 16.8857 74.7876 17.1023 74.2692 17.5355C73.7578 17.9687 73.3707 18.5582 73.108 19.304C72.8523 20.0497 72.7244 20.8984 72.7244 21.8501C72.7244 22.8018 72.8523 23.6506 73.108 24.3963C73.3707 25.142 73.7578 25.7315 74.2692 26.1648C74.7876 26.5909 75.4268 26.804 76.1868 26.804ZM91.7088 8.18182V30H87.1705V8.18182H91.7088ZM104.847 7.15909L97.8159 33.2812H93.9061L100.937 7.15909H104.847ZM117.527 23.0327V13.6364H122.066V30H117.708V27.0277H117.538C117.169 27.9865 116.554 28.7571 115.695 29.3395C114.843 29.9219 113.802 30.2131 112.574 30.2131C111.48 30.2131 110.517 29.9645 109.686 29.4673C108.855 28.9702 108.206 28.2635 107.737 27.3473C107.275 26.4311 107.041 25.3338 107.034 24.0554V13.6364H111.572V23.2457C111.579 24.2116 111.838 24.9751 112.35 25.5362C112.861 26.0973 113.547 26.3778 114.406 26.3778C114.953 26.3778 115.464 26.2536 115.94 26.005C116.416 25.7493 116.799 25.3729 117.091 24.8757C117.389 24.3786 117.534 23.7642 117.527 23.0327ZM125.696 30V13.6364H130.234V30H125.696ZM127.976 11.527C127.301 11.527 126.722 11.3033 126.239 10.8558C125.763 10.4013 125.525 9.85795 125.525 9.22585C125.525 8.60085 125.763 8.06463 126.239 7.61719C126.722 7.16264 127.301 6.93537 127.976 6.93537C128.65 6.93537 129.226 7.16264 129.702 7.61719C130.184 8.06463 130.426 8.60085 130.426 9.22585C130.426 9.85795 130.184 10.4013 129.702 10.8558C129.226 11.3033 128.65 11.527 127.976 11.527Z" fill="#FAF0F0"/>
</svg>
