<svg width="48" height="48" viewBox="0 0 48 48" fill="none" xmlns="http://www.w3.org/2000/svg">
<rect width="48" height="48" rx="6.44058" fill="white"/>
<path d="M14.4212 31.4526L14.4212 34.6708C14.4212 35.662 14.823 36.5615 15.4736 37.2121C15.8069 37.5463 16.203 37.8113 16.6392 37.9919C17.0753 38.1725 17.5428 38.2651 18.0148 38.2644H34.0258C34.4978 38.2651 34.9653 38.1725 35.4014 37.9919C35.8375 37.8113 36.2337 37.5463 36.567 37.2121C36.9013 36.8784 37.1664 36.4819 37.347 36.0454C37.5276 35.6089 37.6202 35.1411 37.6194 34.6687V31.2733C37.6194 31.0451 37.5659 30.82 37.4631 30.6162C37.3604 30.4124 37.2113 30.2355 37.0278 30.0997C36.4573 29.6769 35.677 29.7591 35.0317 30.0544C34.4635 30.3154 33.8388 30.4294 33.215 30.3859C32.5912 30.3423 31.9884 30.1426 31.4619 29.8051C30.9355 29.4677 30.5024 29.0032 30.2024 28.4546C29.9024 27.9059 29.7452 27.2907 29.7452 26.6653C29.7452 26.04 29.9024 25.4248 30.2024 24.8761C30.5024 24.3274 30.9355 23.863 31.4619 23.5256C31.9884 23.1881 32.5912 22.9884 33.215 22.9448C33.8388 22.9013 34.4635 23.0153 35.0317 23.2763C35.676 23.5705 36.4584 23.6527 37.0278 23.231C37.2112 23.0951 37.3602 22.9182 37.463 22.7144C37.5657 22.5106 37.6193 22.2856 37.6194 22.0573V18.6599C37.6194 17.6666 37.2176 16.7692 36.567 16.1186C35.9164 15.468 35.017 15.0663 34.0258 15.0663L30.719 15.0663C30.2339 15.0663 29.7763 14.8364 29.4884 14.4452C29.0455 13.8484 29.1341 13.0301 29.4336 12.351C29.6828 11.7836 29.7867 11.163 29.7358 10.5453C29.6848 9.92761 29.4807 9.33237 29.1419 8.81343C28.803 8.29449 28.3401 7.86821 27.7951 7.57316C27.2501 7.27811 26.6401 7.1236 26.0203 7.1236C25.4005 7.1236 24.7905 7.27811 24.2455 7.57316C23.7005 7.86821 23.2376 8.29449 22.8987 8.81343C22.5599 9.33237 22.3558 9.92761 22.3048 10.5453C22.2539 11.163 22.3577 11.7836 22.607 12.351C22.9065 13.0301 22.994 13.8494 22.5522 14.4473C22.2643 14.8364 21.8067 15.0663 21.3216 15.0663H18.0148C17.0236 15.0663 16.1242 15.468 15.4736 16.1186C15.1396 16.4517 14.8747 16.8475 14.6942 17.2832C14.5136 17.719 14.4208 18.1861 14.4212 18.6578L14.4212 21.8739M14.4137 31.364C14.414 31.1248 14.3581 30.8889 14.2506 30.6752C14.1431 30.4614 13.987 30.2759 13.7948 30.1335C13.1969 29.6917 12.3776 29.7792 11.6985 30.0786C11.1311 30.3279 10.5104 30.4318 9.89276 30.3808C9.27508 30.3299 8.67985 30.1258 8.1609 29.7869C7.64196 29.4481 7.21569 28.9852 6.92064 28.4402C6.62558 27.8951 6.47107 27.2851 6.47107 26.6653C6.47107 26.0456 6.62558 25.4356 6.92063 24.8905C7.21569 24.3455 7.64196 23.8826 8.1609 23.5438C8.67985 23.2049 9.27508 23.0008 9.89276 22.9499C10.5104 22.8989 11.1311 23.0028 11.6985 23.2521C12.3776 23.5515 13.1969 23.639 13.7937 23.1962C13.986 23.0539 14.1422 22.8686 14.2499 22.6551C14.3575 22.4416 14.4137 22.2058 14.4137 21.9667" stroke="#B49CFF" stroke-width="3" stroke-linecap="round" stroke-linejoin="round"/>
</svg>
